# xmcd
#
# Track frame offsets:
#	180
#	24189
#	44371
#	66564
#	86077
#	101212
#	122182
#	145102
#	162800
#	182771
#
# Disc length: 2710 seconds
#
# Revision: 9
# Processed by: cddbd v1.5.2PL0 Copyright (c) Steve Scherf et al.
# Submitted via: audiograbber 1.80.04
#
DISCID=890a940a
DTITLE=Roberto Carlos - Amiga
DYEAR=1982
DGENRE=MPB
TTITLE0=Amiga
TTITLE1=Coisas Que Não Se Esquece
TTITLE2=Fim de Semana
TTITLE3=Pensamentos
TTITLE4=Quantos Momentos Bonitos
TTITLE5=Meus Amores da Televisão
TTITLE6=Fera Ferida
TTITLE7=Como é Possível...
TTITLE8=Recordações
TTITLE9=Como Foi...
EXTD=Dayvison DJ - Recife - PE\ndayvisondj@hotmail.com
EXTT0=Amiga
EXTT1=Coisas Que N_o Se Esquece
EXTT2=Fim De Semana
EXTT3=Pensamentos
EXTT4=Quantos Momentos Bonitos
EXTT5=Meus Amores Da Televis_o
EXTT6=Fera Ferida
EXTT7=Como - Poss_vel...
EXTT8=Recorda__es
EXTT9=Como Foi...
PLAYORDER=
